<?xml version="1.0" ?><svg enable-background="new 0 0 24 24" id="Layer_1" version="1.1" viewBox="0 0 24 24" xml:space="preserve" xmlns="http://www.w3.org/2000/svg" xmlns:xlink="http://www.w3.org/1999/xlink"><g><path d="M12,0C5.3833008,0,0,5.3828125,0,12s5.3833008,12,12,12s12-5.3828125,12-12S18.6166992,0,12,0z" fill="#303C42"/><path d="M12,23C5.9345703,23,1,18.0654297,1,12S5.9345703,1,12,1s11,4.9345703,11,11S18.0654297,23,12,23z" fill="#FED600"/><path d="M19.2507324,3.7492676C20.9562378,5.687561,22,8.2213745,22,11   c0,6.0654297-4.9345703,11-11,11c-2.7786255,0-5.312439-1.0437622-7.2507324-2.7492676C5.7666626,21.543457,8.7131958,23,12,23   c6.0654297,0,11-4.9345703,11-11C23,8.7131958,21.543457,5.7666626,19.2507324,3.7492676z" fill="#010101" opacity="0.1"/><path d="M19,4.5c-1.1030273,0-2,0.8974609-2,2v0.4453125l-2.2431641-2.3496094   c-0.7626953-0.7675781-2.0986328-0.7675781-2.8613281,0c-0.2958984,0.2978516-0.4804688,0.6650391-0.5537109,1.0507813   c-0.7436523-0.3623047-1.7143555-0.2138672-2.315918,0.3916016c-0.6245117,0.6279297-0.753418,1.5683594-0.3862305,2.3251953   C8.2446289,8.4394531,7.8813477,8.6308594,7.5913086,8.9228516C7.5674438,8.9468384,7.5510864,8.9750977,7.5286865,9H6.5   C6.2236328,9,6,9.2236328,6,9.5S6.2236328,10,6.5,10h0.5353394c-0.1115112,0.6311646,0.0720215,1.3052979,0.5559692,1.7919922   l4.2001343,4.2220459c-3.5299683,0.0784912-5.5592651,2.0463257-5.6449585,2.1324463   c-0.1953125,0.1953125-0.1953125,0.5117188,0,0.7070313C6.2441406,18.9511719,6.3720703,19,6.5,19   s0.2558594-0.0488281,0.3535156-0.1464844C6.8720703,18.8349609,8.7431641,17,11.9975586,17   c0.3289795-0.001709,0.5952148,0.017395,0.8659668,0.0460815c0.2373047,0.1960449,0.4882813,0.3748169,0.7658691,0.5144653   c0.5898438,0.296875,1.2236328,0.4414063,1.8520508,0.4414063c0.1278076,0,0.2532349-0.0253296,0.380188-0.0372314   c0.8220215,0.4453735,1.2811279,0.8850708,1.2858276,0.8897705c0.0976563,0.0966797,0.2250977,0.1445313,0.3520508,0.1445313   c0.128418,0,0.2568359-0.0488281,0.3544922-0.1464844c0.1943359-0.1953125,0.1943359-0.5107422-0.0004883-0.7060547   c-0.0144043-0.0144043-0.2568359-0.2404175-0.6640625-0.5310669c0.43927-0.2017212,0.8530884-0.4713745,1.2089844-0.8292847   l1.5620117-1.5712891C20.6308594,14.5419922,21,13.6474609,21,12.6962891V6.5C21,5.3974609,20.1030273,4.5,19,4.5z" fill="#303C42"/><path d="M20,12.6962891c0,0.6845703-0.265625,1.328125-0.7485352,1.8134766l-1.5620117,1.5712891   c-0.9526367,0.9580078-2.4047852,1.1914063-3.6108398,0.5869141c-0.3032227-0.1533203-0.5771484-0.3515625-0.8144531-0.5908203   L8.300293,11.0869141c-0.3999023-0.4023438-0.3999023-1.0566406,0-1.4589844   C8.4926758,9.4345703,8.7490234,9.328125,9.0219727,9.328125c0.2636719,0,0.5117188,0.0996094,0.7021484,0.28125l1.8125,1.8222656   c0.1948242,0.1962891,0.5102539,0.1953125,0.7070313,0.0019531c0.1958008-0.1943359,0.1967773-0.5107422,0.0019531-0.7070313   l-1.793457-1.8037109c-0.0087891-0.0087891-0.0180664-0.0175781-0.0268555-0.0263672L9.7348633,8.2021484   c-0.3999023-0.4023438-0.3999023-1.0566406,0-1.4589844c0.3847656-0.3867188,1.0585938-0.3867188,1.4433594,0l0.6914063,0.6953125   c0.0083008,0.0087891,0.0170898,0.0175781,0.0258789,0.0263672l1.793457,1.8027344   c0.1943359,0.1953125,0.5107422,0.1953125,0.7070313,0.0019531c0.1958008-0.1943359,0.1967773-0.5117188,0.0019531-0.7070313   l-1.8120117-1.8222656c-0.3813477-0.4033203-0.375-1.0439453,0.0185547-1.4394531   c0.3847656-0.3867188,1.065918-0.3798828,1.4360352-0.0068359l3.0976563,3.2451172   c0.1411133,0.1474609,0.3569336,0.1943359,0.5478516,0.1181641C17.8754883,8.5810547,18,8.3974609,18,8.1933594V6.5   c0-0.5517578,0.4487305-1,1-1s1,0.4482422,1,1V12.6962891z" fill="#FED600"/><path d="M19.4082031,5.5917969c0.0565186,0.1252441,0.0914917,0.2617798,0.0914917,0.4078979   v6.1962891c0,0.6845703-0.265625,1.328125-0.7485352,1.8134766l-1.5620117,1.5712891   c-0.9526367,0.9580078-2.4047852,1.1914063-3.6108398,0.5869141c-0.2961426-0.1497192-0.5631104-0.34375-0.7965698-0.5755005   l0.4824219,0.4849854c0.2373047,0.2392578,0.5112305,0.4375,0.8144531,0.5908203   c1.2060547,0.6044922,2.6582031,0.3710938,3.6108398-0.5869141l1.5620117-1.5712891   C19.734375,14.0244141,20,13.3808594,20,12.6962891V6.5C20,6.0946045,19.7553711,5.7487183,19.4082031,5.5917969z" fill="#010101" opacity="0.1"/><linearGradient gradientUnits="userSpaceOnUse" id="SVGID_1_" x1="1.1248375" x2="22.8751621" y1="6.9288282" y2="17.0711708"><stop offset="0" style="stop-color:#FFFFFF;stop-opacity:0.2"/><stop offset="1" style="stop-color:#FFFFFF;stop-opacity:0"/></linearGradient><path d="M12,0C5.3833008,0,0,5.3828125,0,12s5.3833008,12,12,12s12-5.3828125,12-12S18.6166992,0,12,0z" fill="url(#SVGID_1_)"/></g><g/><g/><g/><g/><g/><g/><g/><g/><g/><g/><g/><g/><g/><g/><g/></svg>